<?xml version="1.0" encoding="UTF-8"?>
<!--Generator: Apple Native CoreSVG 175.5-->
<!DOCTYPE svg
PUBLIC "-//W3C//DTD SVG 1.1//EN"
       "http://www.w3.org/Graphics/SVG/1.1/DTD/svg11.dtd">
<svg version="1.1" xmlns="http://www.w3.org/2000/svg" xmlns:xlink="http://www.w3.org/1999/xlink" width="20.3532" height="12.474">
 <g>
  <rect height="12.474" opacity="0" width="20.3532" x="0" y="0"/>
  <path d="M10.1815 12.474C10.4776 12.474 10.766 12.3595 10.9701 12.1306L20.0373 2.84908C20.2338 2.65008 20.3532 2.39662 20.3532 2.09573C20.3532 1.48663 19.8956 1.01669 19.2865 1.01669C19.0006 1.01669 18.7147 1.14344 18.5183 1.32746L9.54962 10.488L10.8035 10.488L1.83238 1.32746C1.63847 1.14344 1.37485 1.01669 1.07906 1.01669C0.467404 1.01669 0 1.48663 0 2.09573C0 2.39662 0.121924 2.65261 0.318358 2.85161L9.39552 12.1331C9.60943 12.362 9.87306 12.474 10.1815 12.474Z" fill="#000000"/>
 </g>
</svg>
